<mxfile host="Electron" modified="2024-07-20T14:19:03.653Z" agent="Mozilla/5.0 (Macintosh; Intel Mac OS X 10_15_7) AppleWebKit/537.36 (KHTML, like Gecko) draw.io/24.6.4 Chrome/124.0.6367.207 Electron/30.0.6 Safari/537.36" etag="rQ8Vl3LyDKwxhk8NQMxC" version="24.6.4" type="device">
  <diagram name="Anwendungsfall-Diagramm" id="e7e014a7-5840-1c2e-5031-d8a46d1fe8dd">
    <mxGraphModel dx="1434" dy="826" grid="1" gridSize="10" guides="1" tooltips="1" connect="1" arrows="1" fold="1" page="1" pageScale="1" pageWidth="1169" pageHeight="826" background="none" math="0" shadow="0">
      <root>
        <mxCell id="0" />
        <mxCell id="1" parent="0" />
        <mxCell id="Y0qoxg_Fr3goSD0_h_ZP-41" value="" style="whiteSpace=wrap;html=1;aspect=fixed;" vertex="1" parent="1">
          <mxGeometry x="240" y="40" width="640" height="640" as="geometry" />
        </mxCell>
        <mxCell id="Y0qoxg_Fr3goSD0_h_ZP-42" value="Reservierung" style="text;strokeColor=none;fillColor=none;html=1;align=center;verticalAlign=middle;whiteSpace=wrap;rounded=0;fontSize=16;" vertex="1" parent="1">
          <mxGeometry x="500" y="50" width="120" height="40" as="geometry" />
        </mxCell>
        <mxCell id="Y0qoxg_Fr3goSD0_h_ZP-64" style="edgeStyle=none;curved=1;rounded=0;orthogonalLoop=1;jettySize=auto;html=1;fontSize=12;startSize=8;endSize=8;" edge="1" parent="1" source="Y0qoxg_Fr3goSD0_h_ZP-43" target="Y0qoxg_Fr3goSD0_h_ZP-61">
          <mxGeometry relative="1" as="geometry" />
        </mxCell>
        <mxCell id="Y0qoxg_Fr3goSD0_h_ZP-67" style="edgeStyle=none;curved=1;rounded=0;orthogonalLoop=1;jettySize=auto;html=1;fontSize=12;startSize=8;endSize=8;" edge="1" parent="1" source="Y0qoxg_Fr3goSD0_h_ZP-43" target="Y0qoxg_Fr3goSD0_h_ZP-66">
          <mxGeometry relative="1" as="geometry" />
        </mxCell>
        <mxCell id="Y0qoxg_Fr3goSD0_h_ZP-70" style="edgeStyle=none;curved=1;rounded=0;orthogonalLoop=1;jettySize=auto;html=1;fontSize=12;startSize=8;endSize=8;" edge="1" parent="1" source="Y0qoxg_Fr3goSD0_h_ZP-43" target="Y0qoxg_Fr3goSD0_h_ZP-68">
          <mxGeometry relative="1" as="geometry" />
        </mxCell>
        <mxCell id="Y0qoxg_Fr3goSD0_h_ZP-43" value="&lt;font color=&quot;#c0c0c0&quot; style=&quot;font-size: 14px;&quot;&gt;Kunde&lt;/font&gt;" style="shape=umlActor;verticalLabelPosition=bottom;verticalAlign=top;html=1;outlineConnect=0;" vertex="1" parent="1">
          <mxGeometry x="120" y="100" width="40" height="80" as="geometry" />
        </mxCell>
        <mxCell id="Y0qoxg_Fr3goSD0_h_ZP-44" value="&lt;font color=&quot;#c0c0c0&quot;&gt;&lt;span style=&quot;font-size: 14px;&quot;&gt;Mitarbeitende&lt;/span&gt;&lt;/font&gt;" style="shape=umlActor;verticalLabelPosition=bottom;verticalAlign=top;html=1;outlineConnect=0;" vertex="1" parent="1">
          <mxGeometry x="1080" y="280" width="40" height="80" as="geometry" />
        </mxCell>
        <mxCell id="Y0qoxg_Fr3goSD0_h_ZP-65" style="edgeStyle=none;curved=1;rounded=0;orthogonalLoop=1;jettySize=auto;html=1;fontSize=12;startSize=8;endSize=8;" edge="1" parent="1" source="Y0qoxg_Fr3goSD0_h_ZP-45" target="Y0qoxg_Fr3goSD0_h_ZP-61">
          <mxGeometry relative="1" as="geometry" />
        </mxCell>
        <mxCell id="Y0qoxg_Fr3goSD0_h_ZP-72" style="edgeStyle=none;curved=1;rounded=0;orthogonalLoop=1;jettySize=auto;html=1;fontSize=12;startSize=8;endSize=8;" edge="1" parent="1" source="Y0qoxg_Fr3goSD0_h_ZP-45" target="Y0qoxg_Fr3goSD0_h_ZP-71">
          <mxGeometry relative="1" as="geometry" />
        </mxCell>
        <mxCell id="Y0qoxg_Fr3goSD0_h_ZP-45" value="&lt;font color=&quot;#c0c0c0&quot;&gt;&lt;span style=&quot;font-size: 14px;&quot;&gt;Manager&lt;/span&gt;&lt;/font&gt;" style="shape=umlActor;verticalLabelPosition=bottom;verticalAlign=top;html=1;outlineConnect=0;" vertex="1" parent="1">
          <mxGeometry x="960" y="110" width="40" height="80" as="geometry" />
        </mxCell>
        <mxCell id="Y0qoxg_Fr3goSD0_h_ZP-74" style="edgeStyle=none;curved=1;rounded=0;orthogonalLoop=1;jettySize=auto;html=1;entryX=1;entryY=0.5;entryDx=0;entryDy=0;fontSize=12;startSize=8;endSize=8;" edge="1" parent="1" source="Y0qoxg_Fr3goSD0_h_ZP-50" target="Y0qoxg_Fr3goSD0_h_ZP-73">
          <mxGeometry relative="1" as="geometry" />
        </mxCell>
        <mxCell id="Y0qoxg_Fr3goSD0_h_ZP-50" value="&lt;font color=&quot;#c0c0c0&quot; style=&quot;font-size: 14px;&quot;&gt;Koch&lt;/font&gt;" style="shape=umlActor;verticalLabelPosition=bottom;verticalAlign=top;html=1;outlineConnect=0;" vertex="1" parent="1">
          <mxGeometry x="960" y="280" width="40" height="80" as="geometry" />
        </mxCell>
        <mxCell id="Y0qoxg_Fr3goSD0_h_ZP-76" style="edgeStyle=none;curved=1;rounded=0;orthogonalLoop=1;jettySize=auto;html=1;fontSize=12;startSize=8;endSize=8;" edge="1" parent="1" source="Y0qoxg_Fr3goSD0_h_ZP-54" target="Y0qoxg_Fr3goSD0_h_ZP-75">
          <mxGeometry relative="1" as="geometry" />
        </mxCell>
        <mxCell id="Y0qoxg_Fr3goSD0_h_ZP-54" value="&lt;font color=&quot;#c0c0c0&quot; style=&quot;font-size: 14px;&quot;&gt;Service&lt;/font&gt;" style="shape=umlActor;verticalLabelPosition=bottom;verticalAlign=top;html=1;outlineConnect=0;" vertex="1" parent="1">
          <mxGeometry x="960" y="480" width="40" height="80" as="geometry" />
        </mxCell>
        <mxCell id="Y0qoxg_Fr3goSD0_h_ZP-61" value="Verfügbarkeit&lt;br style=&quot;font-size: 16px;&quot;&gt;prüfen" style="ellipse;whiteSpace=wrap;html=1;fillColor=#1ba1e2;fontColor=#ffffff;strokeColor=#006EAF;fontSize=16;" vertex="1" parent="1">
          <mxGeometry x="490" y="110" width="160" height="80" as="geometry" />
        </mxCell>
        <mxCell id="Y0qoxg_Fr3goSD0_h_ZP-66" value="&lt;font color=&quot;#ffffff&quot; style=&quot;font-size: 16px;&quot;&gt;Tisch&lt;br style=&quot;font-size: 16px;&quot;&gt;resservieren&lt;/font&gt;" style="ellipse;whiteSpace=wrap;html=1;fillColor=#1ba1e2;fontColor=#ffffff;strokeColor=#006EAF;fontSize=16;" vertex="1" parent="1">
          <mxGeometry x="300" y="190" width="160" height="80" as="geometry" />
        </mxCell>
        <mxCell id="Y0qoxg_Fr3goSD0_h_ZP-68" value="Reservierung&lt;br style=&quot;font-size: 16px;&quot;&gt;stornieren" style="ellipse;whiteSpace=wrap;html=1;fillColor=#1ba1e2;fontColor=#ffffff;strokeColor=#006EAF;fontSize=16;" vertex="1" parent="1">
          <mxGeometry x="300" y="320" width="160" height="80" as="geometry" />
        </mxCell>
        <mxCell id="Y0qoxg_Fr3goSD0_h_ZP-71" value="Restaurant&lt;div&gt;verwalten&lt;/div&gt;" style="ellipse;whiteSpace=wrap;html=1;fillColor=#1ba1e2;fontColor=#ffffff;strokeColor=#006EAF;fontSize=16;" vertex="1" parent="1">
          <mxGeometry x="670" y="200" width="160" height="80" as="geometry" />
        </mxCell>
        <mxCell id="Y0qoxg_Fr3goSD0_h_ZP-73" value="Mahlzeit&lt;br&gt;zubereiten" style="ellipse;whiteSpace=wrap;html=1;fillColor=#1ba1e2;fontColor=#ffffff;strokeColor=#006EAF;fontSize=16;" vertex="1" parent="1">
          <mxGeometry x="670" y="330" width="160" height="80" as="geometry" />
        </mxCell>
        <mxCell id="Y0qoxg_Fr3goSD0_h_ZP-75" value="Kunden&lt;br&gt;bedienen" style="ellipse;whiteSpace=wrap;html=1;fillColor=#1ba1e2;fontColor=#ffffff;strokeColor=#006EAF;fontSize=16;" vertex="1" parent="1">
          <mxGeometry x="490" y="490" width="160" height="80" as="geometry" />
        </mxCell>
      </root>
    </mxGraphModel>
  </diagram>
</mxfile>
